<svg width="24" height="24" viewBox="0 0 24 24" fill="none" xmlns="http://www.w3.org/2000/svg">
<path d="M20.1121 19.29L16.9097 15.9C17.9429 14.5025 18.5036 12.7767 18.5015 11C18.5015 9.41775 18.0596 7.87103 17.2316 6.55544C16.4036 5.23985 15.2268 4.21447 13.8499 3.60897C12.473 3.00347 10.958 2.84504 9.49629 3.15372C8.03461 3.4624 6.69197 4.22433 5.63816 5.34315C4.58434 6.46197 3.86669 7.88743 3.57594 9.43928C3.2852 10.9911 3.43442 12.5997 4.00474 14.0615C4.57506 15.5233 5.54086 16.7727 6.78001 17.6518C8.01916 18.5308 9.47601 19 10.9663 19C12.6397 19.0022 14.2653 18.407 15.5816 17.31L18.7746 20.71C18.8622 20.8037 18.9664 20.8781 19.0812 20.9289C19.1959 20.9797 19.319 21.0058 19.4434 21.0058C19.5677 21.0058 19.6908 20.9797 19.8056 20.9289C19.9204 20.8781 20.0246 20.8037 20.1121 20.71C20.2004 20.617 20.2705 20.5064 20.3183 20.3846C20.3661 20.2627 20.3907 20.132 20.3907 20C20.3907 19.868 20.3661 19.7373 20.3183 19.6154C20.2705 19.4936 20.2004 19.383 20.1121 19.29V19.29ZM5.31495 11C5.31495 9.81332 5.6464 8.65328 6.26738 7.66658C6.88836 6.67989 7.77098 5.91085 8.80364 5.45673C9.83629 5.0026 10.9726 4.88378 12.0689 5.11529C13.1651 5.3468 14.1721 5.91825 14.9624 6.75736C15.7528 7.59648 16.2911 8.66558 16.5091 9.82946C16.7272 10.9933 16.6153 12.1997 16.1875 13.2961C15.7598 14.3925 15.0354 15.3295 14.1061 15.9888C13.1767 16.6481 12.0841 17 10.9663 17C9.46749 17 8.03004 16.3679 6.9702 15.2426C5.91036 14.1174 5.31495 12.5913 5.31495 11Z" fill="#3E5481"/>
</svg>
