<svg width="32" height="32" viewBox="0 0 32 32" fill="none" xmlns="http://www.w3.org/2000/svg">
<path d="M5.88525 2.66138L1.33838 2.68481L1.3514 5.35148L4.11182 5.33846L8.50505 15.8775L6.90869 18.4322C6.37536 19.2855 6.34777 20.3634 6.83577 21.2421C7.32377 22.1208 8.24971 22.6666 9.25505 22.6666H25.3332V19.9999H9.25505L9.16911 19.8437L10.7368 17.3333H20.6952C21.6645 17.3333 22.5565 16.8062 23.0259 15.9609L27.8306 7.31502C28.0612 6.90169 28.0549 6.3975 27.8149 5.9895C27.5749 5.58284 27.1359 5.33325 26.6639 5.33325H6.99984L5.88525 2.66138ZM8.10921 7.99992H24.3983L20.6952 14.6666H10.8879L8.10921 7.99992ZM9.33317 23.9999C8.62593 23.9999 7.94765 24.2809 7.44755 24.781C6.94746 25.2811 6.6665 25.9593 6.6665 26.6666C6.6665 27.3738 6.94746 28.0521 7.44755 28.5522C7.94765 29.0523 8.62593 29.3333 9.33317 29.3333C10.0404 29.3333 10.7187 29.0523 11.2188 28.5522C11.7189 28.0521 11.9998 27.3738 11.9998 26.6666C11.9998 25.9593 11.7189 25.2811 11.2188 24.781C10.7187 24.2809 10.0404 23.9999 9.33317 23.9999ZM22.6665 23.9999C21.9593 23.9999 21.281 24.2809 20.7809 24.781C20.2808 25.2811 19.9998 25.9593 19.9998 26.6666C19.9998 27.3738 20.2808 28.0521 20.7809 28.5522C21.281 29.0523 21.9593 29.3333 22.6665 29.3333C23.3737 29.3333 24.052 29.0523 24.5521 28.5522C25.0522 28.0521 25.3332 27.3738 25.3332 26.6666C25.3332 25.9593 25.0522 25.2811 24.5521 24.781C24.052 24.2809 23.3737 23.9999 22.6665 23.9999Z" fill="#3E5481"/>
</svg>
